<svg width="37" height="37" viewBox="0 0 37 37" fill="none" xmlns="http://www.w3.org/2000/svg">
<g clip-path="url(#clip0_1_33)">
<path d="M11.8029 28.7792C9.66948 28.7792 7.94012 30.5087 7.94012 32.642C7.94012 34.7753 9.66956 36.5047 11.8029 36.5047C13.9362 36.5047 15.6656 34.7753 15.6656 32.642C15.6657 30.5087 13.9362 28.7792 11.8029 28.7792ZM11.8029 34.788C10.6177 34.788 9.65691 33.8272 9.65691 32.6421C9.65691 31.4569 10.6177 30.4961 11.8029 30.4961C12.988 30.4961 13.9488 31.4569 13.9488 32.6421C13.9489 33.8272 12.988 34.788 11.8029 34.788Z" fill="black"/>
<path d="M28.1123 28.7792C25.979 28.7792 24.2496 30.5087 24.2496 32.642C24.2496 34.7753 25.979 36.5047 28.1123 36.5047C30.2456 36.5047 31.9751 34.7753 31.9751 32.642C31.9751 30.5087 30.2457 28.7792 28.1123 28.7792ZM28.1123 34.788C26.9271 34.788 25.9664 33.8272 25.9664 32.6421C25.9664 31.4569 26.9271 30.4961 28.1123 30.4961C29.2975 30.4961 30.2583 31.4569 30.2583 32.6421C30.2584 33.8272 29.2975 34.788 28.1123 34.788Z" fill="black"/>
<path d="M36.825 6.24648C36.6463 6.0512 36.4017 5.92896 36.1383 5.90309L8.19767 5.51681L7.42512 3.15621C6.88087 1.57817 5.40314 0.512841 3.734 0.495178H0.858394C0.384302 0.495178 0 0.87948 0 1.35357C0 1.82766 0.384302 2.21197 0.858394 2.21197H3.734C4.66732 2.23259 5.48916 2.83188 5.79418 3.71418L11.245 20.1524L10.8158 21.1395C10.3371 22.3739 10.4809 23.7633 11.2021 24.8735C11.9164 25.964 13.1181 26.637 14.4211 26.6762H31.1169C31.5909 26.6762 31.9752 26.2919 31.9752 25.8178C31.9752 25.3437 31.5909 24.9594 31.1169 24.9594H14.421C13.6852 24.941 13.0078 24.5539 12.6184 23.9293C12.2332 23.3123 12.1541 22.5523 12.4038 21.8691L12.7472 21.0966L30.8163 19.2081C32.8011 18.9895 34.4338 17.5459 34.8937 15.6028L36.9539 6.97598C37.0467 6.72755 36.9975 6.44816 36.825 6.24648ZM33.2198 15.2166C32.9412 16.4674 31.8792 17.3901 30.6018 17.4914L12.7472 19.3369L8.75564 7.2336L35.0653 7.61987L33.2198 15.2166Z" fill="black"/>
</g>
<defs>
<clipPath id="clip0_1_33">
<rect width="37" height="37" fill="white"/>
</clipPath>
</defs>
</svg>
