<?xml version="1.0" encoding="utf-8"?><svg version="1.1" id="Layer_1" xmlns="http://www.w3.org/2000/svg" xmlns:xlink="http://www.w3.org/1999/xlink" x="0px" y="0px" viewBox="0 0 88.5 122.88" style="enable-background:new 0 0 88.5 122.88" xml:space="preserve"><style type="text/css">.st0{fill-rule:evenodd;clip-rule:evenodd;}</style><g><path class="st0" d="M0,14.48h7.22L20.97,0H68.2l14.18,14.48l6.11,0v9.7l-88.5,0V14.48L0,14.48z M6.99,30.05h75.32 c0.89,0,1.7,0.73,1.61,1.61l-8.8,91.22H13.57L5.14,31.9C5.05,30.88,5.97,30.05,6.99,30.05L6.99,30.05L6.99,30.05z M63.29,69.12 V83.8l-11.42,0v11.42l-14.68,0V83.8l-11.42,0V69.12l11.42,0V57.7l14.68,0v11.42L63.29,69.12L63.29,69.12z M37.38,9.78h13.73 c0.45,0,0.82,0.37,0.82,0.82v4.03c0,0.45-0.37,0.82-0.82,0.82H37.38c-0.45,0-0.82-0.37-0.82-0.82l0-4.03 C36.56,10.14,36.93,9.78,37.38,9.78L37.38,9.78L37.38,9.78z"/></g></svg>